<svg id="b8052733-de3c-45ee-9926-bf6500df418b" data-name="Capa 1" xmlns="http://www.w3.org/2000/svg" viewBox="0 0 629 629"><defs><style>.fd6b1dfb-80e8-4433-8221-10bb7ead28b1{fill:#074482;}.a520123c-943d-43dc-a459-aac0c4e3280a{fill:#efefef;}</style></defs><title>Sin título-1</title><rect class="fd6b1dfb-80e8-4433-8221-10bb7ead28b1" width="629" height="629" rx="158.11"/><path class="a520123c-943d-43dc-a459-aac0c4e3280a" d="M916.27,394.86H847.86V326.45a26.55,26.55,0,0,0-53.09,0v68.41H726.36a26.55,26.55,0,0,0-26.55,26.55h0A26.55,26.55,0,0,0,726.36,448h68.41v68.41a26.55,26.55,0,1,0,53.09,0V448h68.41a26.54,26.54,0,0,0,26.54-26.54h0A26.54,26.54,0,0,0,916.27,394.86Z" transform="translate(-645.5 -225.5)"/><rect class="a520123c-943d-43dc-a459-aac0c4e3280a" x="54.31" y="387.36" width="243" height="53.09" rx="26.55"/><rect class="a520123c-943d-43dc-a459-aac0c4e3280a" x="54.31" y="481.36" width="243" height="53.09" rx="26.55"/><path class="a520123c-943d-43dc-a459-aac0c4e3280a" d="M1136.23,686.41,1184.6,638a26.54,26.54,0,0,0,0-37.54h0a26.56,26.56,0,0,0-37.54,0l-48.37,48.37-48.37-48.37a26.57,26.57,0,0,0-37.55,0h0a26.56,26.56,0,0,0,0,37.54l48.37,48.38-48.37,48.37a26.56,26.56,0,0,0,0,37.54h0a26.55,26.55,0,0,0,37.55,0L1098.69,724l48.37,48.37a26.54,26.54,0,0,0,37.54-37.54Z" transform="translate(-645.5 -225.5)"/><rect class="a520123c-943d-43dc-a459-aac0c4e3280a" x="331.69" y="169.7" width="243" height="53.09" rx="26.55"/></svg>